<?xml version="1.0" standalone="no"?><!DOCTYPE svg PUBLIC "-//W3C//DTD SVG 1.1//EN" "http://www.w3.org/Graphics/SVG/1.1/DTD/svg11.dtd"><svg t="1717580065322" class="icon" viewBox="0 0 1090 1024" version="1.1" xmlns="http://www.w3.org/2000/svg" p-id="16377" xmlns:xlink="http://www.w3.org/1999/xlink" width="212.890625" height="200"><path d="M557.352561 0a187.916991 187.916991 0 0 1 179.519075 132.403498 187.807927 187.807927 0 0 1 168.75811 178.937401l0.181773 7.96166-0.036355 180.537005L1054.283756 499.875919a36.354612 36.354612 0 0 1 4.217135 72.454742L1054.283756 572.585143h-42.825734l-34.464172 362.455484a109.172901 109.172901 0 0 1-100.702276 88.777963l-6.507476 0.181774H220.78156a109.318319 109.318319 0 0 1-106.155468-85.433339l-1.454184-6.761958-34.318754-359.219924H36.354612a36.354612 36.354612 0 0 1-4.217135-72.454742L36.354612 499.875919l136.220732-0.036355V319.266205a187.807927 187.807927 0 0 1 187.807927-187.807927c5.925802 0 11.778894 0.290837 17.522923 0.799801A187.953345 187.953345 0 0 1 557.352561 0m79.798373 725.565351h-183.990692l-4.217135 0.254483a36.354612 36.354612 0 0 0 0 72.20026l4.217135 0.254482h183.990692l4.25349-0.254482a36.354612 36.354612 0 0 0 0-72.20026zM557.352561 72.709225a115.280475 115.280475 0 0 0-109.71822 80.198274 187.916991 187.916991 0 0 1 100.411439 157.742663l0.181773 8.616043v180.573359h124.260065V187.844282A115.098702 115.098702 0 0 0 557.352561 72.709225m187.880636 134.693838l-0.036355 292.436501h87.869098l0.036355-180.537005a115.207766 115.207766 0 0 0-87.869098-111.899496M360.383271 204.167502a115.135057 115.135057 0 0 0-114.916929 108.554873l-0.181773 6.54383v41.989577l56.894968 0.036355a36.354612 36.354612 0 0 1 4.25349 72.454742l-4.25349 0.254482-56.931323-0.036354 0.036355 65.874557h230.233759V319.266205a115.098702 115.098702 0 0 0-102.192815-114.37161l-6.398411-0.545319z" fill="#f39c12" p-id="16378"></path></svg>