<?xml version="1.0" standalone="no"?><!DOCTYPE svg PUBLIC "-//W3C//DTD SVG 1.1//EN" "http://www.w3.org/Graphics/SVG/1.1/DTD/svg11.dtd"><svg height="1525" node-id="1" sillyvg="true" template-height="1525" template-width="1099" version="1.1" viewBox="0 0 1099 1525" width="1099" xmlns="http://www.w3.org/2000/svg" xmlns:xlink="http://www.w3.org/1999/xlink"><defs node-id="23"><clipPath id="clip-path" node-id="5"><path d="M 250.10 36.60 L 1349.90 36.60 L 1349.90 1563.50 L 250.10 1563.50 Z" fill="#000000" fill-rule="nonzero" id="SVGID" node-id="6" stroke="none" target-height="1526.9" target-width="1099.8" target-x="250.1" target-y="36.6"></path></clipPath></defs><g node-id="99"><g clip-path="url(#clip-path)" group-id="1" id="sillyvg_g_0" node-id="29"><path d="M 167.70 3.00 L 162.20 1232.60 L 147.00 1238.30 L 99.90 1254.70 L 90.50 1258.20 L 81.40 1262.00 L 73.00 1266.10 L 62.10 1272.30 L 51.50 1279.80 L 46.10 1284.20 L 35.10 1294.40 L 23.00 1307.30 L 13.80 1318.30 L 3.20 1331.70 L 2.00 1044.10 L 1.50 756.70 L 1.80 469.40 L 2.60 182.30 L 2.90 168.30 L 3.70 154.90 L 4.90 142.00 L 6.50 129.60 L 8.20 119.60 L 10.30 110.10 L 12.70 100.90 L 15.40 92.20 L 18.40 83.90 L 21.90 75.50 L 25.70 67.70 L 29.90 60.30 L 34.50 53.30 L 39.40 46.70 L 44.70 40.40 L 50.50 34.60 L 56.70 29.20 L 63.40 24.30 L 70.50 19.70 L 76.60 16.40 L 83.10 13.40 L 89.90 10.70 L 97.10 8.40 L 104.80 6.30 L 112.90 4.60 L 122.40 3.20 L 132.50 2.30 L 143.40 1.90 L 155.10 2.20 L 167.60 3.00 Z M 972.60 0.00 L 975.10 1229.70 L 974.70 1232.10 L 973.80 1234.30 L 972.40 1236.10 L 970.60 1237.60 L 968.40 1238.50 L 966.00 1238.90 L 872.20 1241.00 L 778.40 1242.50 L 684.60 1243.30 L 590.90 1243.40 L 497.10 1242.80 L 403.30 1241.60 L 309.50 1239.70 L 215.60 1237.10 L 209.80 2.10 Z M 381.40 630.50 L 381.00 627.40 L 379.90 624.40 L 378.20 621.40 L 376.00 618.80 L 373.20 616.20 L 369.60 613.90 L 365.80 611.90 L 361.60 610.30 L 356.90 609.00 L 352.20 608.20 L 347.30 607.70 L 342.10 607.60 L 336.80 608.00 L 331.80 608.70 L 327.10 609.90 L 322.60 611.40 L 318.50 613.20 L 314.90 615.30 L 311.60 617.80 L 309.00 620.40 L 306.90 623.10 L 304.70 627.70 L 304.10 632.50 L 304.50 635.60 L 305.60 638.60 L 307.30 641.50 L 309.50 644.20 L 312.30 646.70 L 315.90 649.10 L 319.70 651.00 L 323.90 652.60 L 328.50 653.90 L 333.30 654.80 L 338.20 655.30 L 343.40 655.30 L 348.70 655.00 L 353.70 654.20 L 358.40 653.10 L 362.90 651.50 L 367.00 649.70 L 370.50 647.60 L 373.80 645.20 L 376.50 642.60 L 378.60 639.80 L 380.80 635.30 L 381.40 630.50 Z M 484.80 699.10 L 484.60 696.10 L 483.20 690.70 L 482.00 688.20 L 479.90 685.20 L 477.40 682.70 L 474.40 680.50 L 471.90 679.20 L 466.60 677.70 L 463.60 677.50 L 327.80 676.00 L 324.80 676.20 L 319.50 677.60 L 317.00 678.80 L 314.00 680.90 L 311.40 683.50 L 309.20 686.40 L 307.00 691.50 L 306.20 697.20 L 306.40 701.80 L 307.70 707.20 L 310.40 712.00 L 312.30 714.20 L 316.70 717.70 L 321.80 719.80 L 327.30 720.60 L 463.20 722.10 L 466.10 721.90 L 468.90 721.30 L 474.00 719.20 L 477.00 717.10 L 479.60 714.60 L 481.70 711.60 L 483.90 706.60 L 484.50 703.80 L 484.80 699.10 Z M 835.00 1125.70 L 923.80 1125.90 L 927.00 1125.60 L 930.00 1124.70 L 932.80 1123.30 L 935.30 1121.50 L 937.40 1119.30 L 939.20 1116.60 L 940.60 1113.70 L 941.40 1110.60 L 941.80 1107.20 L 942.10 827.20 L 942.00 824.30 L 941.40 821.70 L 940.40 819.10 L 939.00 816.70 L 937.20 814.60 L 935.10 812.70 L 927.50 807.80 L 919.80 803.60 L 911.90 800.20 L 903.80 797.40 L 895.50 795.30 L 887.00 793.90 L 878.20 793.10 L 869.00 793.10 L 859.60 793.70 L 849.70 795.20 L 839.40 797.40 L 357.80 800.10 L 353.70 800.40 L 349.70 801.20 L 346.00 802.40 L 342.50 804.20 L 339.20 806.30 L 336.30 808.80 L 333.70 811.60 L 331.60 814.80 L 329.80 818.20 L 328.50 821.80 L 327.70 825.60 L 327.30 829.70 L 327.20 1091.10 L 327.50 1097.60 L 328.40 1103.20 L 329.90 1108.00 L 331.80 1112.10 L 334.30 1115.50 L 337.20 1118.50 L 340.70 1120.90 L 344.70 1122.90 L 349.50 1124.40 L 355.10 1125.40 L 361.60 1125.70 Z" fill="#a3b0e4" fill-rule="nonzero" group-id="1,12" node-id="33" stroke="none" target-height="1331.7" target-width="973.6" target-x="1.5" target-y="0"></path><path d="M 972.60 0.00 L 1062.20 2.50 L 1066.50 2.90 L 1070.50 3.90 L 1074.20 5.40 L 1077.80 7.50 L 1081.00 9.90 L 1084.00 12.90 L 1086.60 16.20 L 1088.70 19.80 L 1090.50 23.80 L 1091.80 28.00 L 1092.60 32.40 L 1092.90 37.10 L 1097.20 1224.50 L 1087.60 1228.60 L 1077.90 1232.20 L 1068.10 1235.40 L 1058.10 1238.10 L 1048.00 1240.30 L 1037.80 1242.10 L 1027.60 1243.30 L 1017.30 1244.00 L 1006.90 1244.30 L 993.80 1244.20 L 991.30 1244.80 L 989.00 1245.90 L 987.00 1247.40 L 985.30 1249.40 L 984.00 1251.70 L 980.90 1260.30 L 978.60 1268.90 L 977.00 1277.50 L 976.00 1286.10 L 975.80 1294.80 L 976.30 1303.60 L 977.40 1312.50 L 979.30 1321.50 L 982.00 1330.70 L 968.60 1336.60 L 892.20 1335.90 L 732.50 1336.60 L 662.70 1334.20 L 592.90 1332.50 L 523.10 1331.40 L 453.30 1330.90 L 383.40 1331.10 L 313.60 1331.90 L 243.80 1333.40 L 152.70 1336.20 L 142.40 1336.80 L 132.90 1337.70 L 126.70 1338.80 L 121.00 1340.20 L 115.80 1342.00 L 112.10 1343.60 L 108.70 1345.60 L 105.60 1347.90 L 102.90 1350.60 L 100.50 1353.50 L 98.40 1356.90 L 96.70 1360.80 L 95.30 1365.40 L 94.40 1369.90 L 93.90 1375.10 L 93.90 1381.10 L 94.40 1388.10 L 95.50 1395.30 L 97.20 1401.60 L 99.30 1407.10 L 101.90 1411.90 L 105.00 1416.10 L 108.50 1419.80 L 112.60 1422.90 L 117.10 1425.50 L 122.30 1427.60 L 128.20 1429.10 L 134.80 1430.20 L 142.30 1430.50 L 727.40 1433.90 L 725.90 1444.10 L 725.20 1453.90 L 725.30 1463.30 L 726.10 1472.40 L 727.60 1481.20 L 729.80 1489.80 L 732.70 1498.20 L 736.40 1506.40 L 740.70 1514.40 L 745.90 1522.30 L 470.10 1523.10 L 194.30 1523.20 L 177.80 1522.90 L 162.30 1522.10 L 147.50 1520.80 L 133.60 1519.00 L 122.20 1517.10 L 111.40 1514.70 L 101.20 1512.00 L 91.50 1509.00 L 82.40 1505.60 L 73.20 1501.60 L 64.70 1497.30 L 56.70 1492.50 L 49.20 1487.30 L 42.20 1481.60 L 36.80 1476.50 L 31.60 1471.10 L 26.90 1465.30 L 22.50 1459.10 L 18.40 1452.60 L 14.70 1445.60 L 11.50 1438.60 L 8.70 1431.20 L 6.20 1423.20 L 4.10 1414.80 L 2.40 1405.80 L 1.10 1396.10 L 0.40 1387.00 L 0.00 1377.30 L 0.10 1367.00 L 0.60 1356.00 L 1.60 1344.20 L 3.20 1331.80 L 13.80 1318.40 L 23.00 1307.40 L 29.30 1300.50 L 40.50 1289.30 L 51.50 1279.80 L 62.10 1272.40 L 73.00 1266.10 L 81.40 1262.10 L 99.90 1254.70 L 133.90 1243.00 L 162.20 1232.70 L 168.00 1236.20 L 173.70 1238.80 L 179.40 1240.70 L 185.10 1241.90 L 191.00 1242.40 L 196.90 1242.20 L 202.90 1241.30 L 209.20 1239.60 L 215.60 1237.10 L 308.70 1239.70 L 402.00 1241.60 L 495.50 1242.80 L 589.20 1243.40 L 683.10 1243.30 L 777.20 1242.50 L 871.50 1241.00 L 966.00 1238.90 L 968.40 1238.50 L 970.60 1237.60 L 972.40 1236.10 L 973.80 1234.30 L 974.80 1232.10 L 975.10 1229.70 Z" fill="#8897dc" fill-rule="nonzero" group-id="1,13" node-id="38" stroke="none" target-height="1523.2" target-width="1097.2" target-x="0" target-y="0"></path></g></g><g node-id="100"><path d="M 167.70 3.00 L 209.80 2.10 L 215.60 1237.10 L 209.20 1239.60 L 202.90 1241.30 L 196.90 1242.20 L 190.90 1242.40 L 185.10 1241.90 L 179.40 1240.70 L 173.70 1238.80 L 168.00 1236.10 L 162.20 1232.60 Z M 1097.20 1224.50 L 1097.20 1340.30 L 1083.00 1336.90 L 1068.80 1334.10 L 1054.40 1332.00 L 1040.00 1330.50 L 1025.50 1329.60 L 1011.10 1329.30 L 996.60 1329.70 L 982.00 1330.70 L 979.40 1321.50 L 977.50 1312.50 L 976.30 1303.60 L 975.80 1294.80 L 976.10 1286.10 L 977.00 1277.50 L 978.60 1268.90 L 981.00 1260.30 L 984.00 1251.70 L 985.30 1249.30 L 987.00 1247.40 L 989.00 1245.80 L 991.30 1244.70 L 993.80 1244.10 L 1006.90 1244.30 L 1017.30 1244.00 L 1027.60 1243.30 L 1037.80 1242.00 L 1048.00 1240.30 L 1058.10 1238.10 L 1068.10 1235.40 L 1077.90 1232.20 L 1087.60 1228.50 L 1097.20 1224.40 Z" fill="#6e80d5" fill-rule="nonzero" group-id="2" node-id="44" stroke="none" target-height="1338.2001" target-width="934.99994" target-x="162.2" target-y="2.1"></path></g><g node-id="101"><path d="M 732.50 1336.60 L 727.40 1433.90 L 142.30 1430.50 L 134.80 1430.10 L 128.20 1429.10 L 122.30 1427.50 L 117.10 1425.40 L 112.50 1422.80 L 108.50 1419.70 L 105.00 1416.10 L 101.90 1411.90 L 99.30 1407.10 L 97.20 1401.60 L 95.50 1395.30 L 94.40 1388.10 L 93.90 1381.10 L 93.90 1375.10 L 94.40 1369.80 L 95.30 1365.30 L 96.70 1360.80 L 98.40 1356.90 L 100.50 1353.50 L 102.90 1350.50 L 105.60 1347.90 L 108.70 1345.60 L 112.10 1343.60 L 115.80 1341.90 L 121.00 1340.20 L 126.70 1338.70 L 132.90 1337.70 L 142.40 1336.70 L 152.70 1336.10 L 243.70 1333.40 L 313.50 1331.90 L 383.30 1331.00 L 453.10 1330.90 L 522.90 1331.30 L 592.80 1332.40 L 662.60 1334.20 L 732.50 1336.60 Z" fill="#f1eff2" fill-rule="nonzero" group-id="3" node-id="49" stroke="none" target-height="103" target-width="638.6" target-x="93.9" target-y="1330.9"></path></g><g node-id="102"><path d="M 892.20 1335.80 L 889.20 1429.40 L 890.70 1440.10 L 891.30 1450.30 L 891.30 1460.20 L 890.50 1469.80 L 888.90 1479.10 L 886.70 1488.10 L 883.80 1496.90 L 880.20 1505.60 L 875.80 1514.00 L 870.70 1522.30 L 745.90 1522.30 L 740.80 1514.40 L 736.40 1506.40 L 732.80 1498.20 L 729.80 1489.80 L 727.60 1481.20 L 726.10 1472.30 L 725.30 1463.20 L 725.30 1453.80 L 725.90 1444.00 L 727.40 1433.90 L 732.60 1336.60 Z" fill="#fa7621" fill-rule="nonzero" group-id="4" node-id="54" stroke="none" target-height="186.5" target-width="166.90002" target-x="725.3" target-y="1335.8"></path></g><g node-id="103"><path d="M 968.70 1336.60 L 972.40 1345.60 L 975.30 1354.40 L 977.50 1363.10 L 978.90 1371.70 L 979.50 1380.10 L 979.50 1388.50 L 978.80 1396.80 L 977.40 1405.10 L 975.20 1413.40 L 972.30 1421.70 L 968.70 1430.10 L 889.20 1429.40 L 892.20 1335.80 Z" fill="#f1eff2" fill-rule="nonzero" group-id="5" node-id="59" stroke="none" target-height="94.29993" target-width="90.29999" target-x="889.2" target-y="1335.8"></path></g><g node-id="104"><path d="M 982.00 1330.70 L 996.60 1329.70 L 1011.10 1329.30 L 1025.50 1329.60 L 1040.00 1330.50 L 1054.40 1332.00 L 1068.80 1334.10 L 1083.00 1336.90 L 1097.20 1340.30 L 1092.70 1438.30 L 1026.60 1434.50 L 968.70 1430.10 L 972.30 1421.70 L 975.20 1413.40 L 977.40 1405.10 L 978.80 1396.80 L 979.50 1388.40 L 979.50 1380.10 L 978.90 1371.60 L 977.50 1363.10 L 975.30 1354.40 L 972.40 1345.60 L 968.70 1336.50 Z" fill="#e1dde1" fill-rule="nonzero" group-id="6" node-id="64" stroke="none" target-height="109" target-width="128.49994" target-x="968.7" target-y="1329.3"></path></g><g node-id="105"><g clip-path="url(#clip-path)" group-id="7" id="sillyvg_g_1" node-id="67"><path d="M 889.20 1429.40 L 968.70 1430.10 L 1026.60 1434.60 L 986.30 1441.00 L 983.20 1442.30 L 981.00 1444.70 L 980.20 1446.30 L 979.50 1449.70 L 981.00 1459.60 L 981.50 1467.30 L 981.30 1474.80 L 980.40 1482.00 L 978.80 1489.00 L 976.50 1495.90 L 973.50 1502.60 L 969.70 1509.30 L 965.10 1515.80 L 959.70 1522.30 L 870.60 1522.30 L 875.70 1514.00 L 880.10 1505.50 L 883.70 1496.90 L 886.60 1488.10 L 888.90 1479.10 L 890.40 1469.80 L 891.20 1460.20 L 891.20 1450.30 L 890.60 1440.10 L 889.10 1429.40 Z" fill="#8897dc" fill-rule="nonzero" group-id="7,14" node-id="71" stroke="none" target-height="92.900024" target-width="156" target-x="870.6" target-y="1429.4"></path><path d="M 1026.60 1434.60 L 1092.70 1438.40 L 1095.30 1447.60 L 1097.20 1455.90 L 1098.40 1463.20 L 1098.90 1469.80 L 1099.00 1476.60 L 1098.50 1482.60 L 1097.60 1488.00 L 1096.10 1492.70 L 1094.20 1497.30 L 1091.80 1501.50 L 1089.10 1505.20 L 1085.90 1508.50 L 1082.40 1511.40 L 1078.60 1514.00 L 1074.50 1516.30 L 1069.90 1518.30 L 1063.70 1520.40 L 1057.00 1522.20 L 1049.70 1523.50 L 1042.40 1524.30 L 1027.00 1525.20 L 1003.30 1524.70 L 959.70 1522.30 L 965.10 1515.90 L 969.70 1509.30 L 973.50 1502.70 L 976.50 1496.00 L 978.80 1489.10 L 980.40 1482.10 L 981.30 1474.80 L 981.50 1467.40 L 981.00 1459.60 L 979.50 1449.80 L 980.20 1446.40 L 982.00 1443.40 L 984.70 1441.50 L 986.30 1441.10 L 1026.60 1434.60 Z" fill="#6e80d5" fill-rule="nonzero" group-id="7,15" node-id="76" stroke="none" target-height="90.599976" target-width="139.29999" target-x="959.7" target-y="1434.6"></path></g></g><g node-id="106"><path d="M 304.10 632.50 L 305.00 637.20 L 307.30 641.70 L 309.60 644.30 L 312.40 646.80 L 315.80 649.10 L 319.50 651.00 L 323.60 652.60 L 328.20 653.90 L 333.00 654.80 L 338.00 655.30 L 343.30 655.40 L 348.70 655.00 L 353.70 654.20 L 358.40 653.10 L 362.90 651.50 L 366.90 649.70 L 370.50 647.60 L 373.80 645.20 L 376.50 642.60 L 378.60 639.80 L 379.80 637.60 L 380.70 635.30 L 381.30 630.50 L 380.40 625.70 L 378.10 621.20 L 375.80 618.60 L 373.00 616.20 L 369.60 613.90 L 365.90 612.00 L 361.80 610.40 L 357.20 609.10 L 352.50 608.20 L 347.50 607.70 L 342.10 607.60 L 336.80 608.00 L 331.80 608.80 L 327.10 609.90 L 322.60 611.50 L 318.50 613.30 L 314.90 615.40 L 311.60 617.80 L 309.00 620.40 L 306.90 623.10 L 305.60 625.40 L 304.70 627.70 L 304.10 632.50 Z" fill="#f1eff2" fill-rule="nonzero" group-id="8" node-id="82" stroke="none" target-height="47.80005" target-width="77.19998" target-x="304.1" target-y="607.6"></path></g><g node-id="107"><path d="M 327.80 676.00 L 463.60 677.50 L 468.40 677.80 L 472.40 678.70 L 475.70 680.10 L 478.40 681.90 L 480.60 684.20 L 482.40 686.90 L 483.70 690.20 L 484.50 694.20 L 484.80 700.90 L 484.40 705.70 L 483.50 709.70 L 482.10 713.00 L 480.30 715.70 L 478.10 717.90 L 475.30 719.60 L 472.00 720.90 L 468.00 721.80 L 463.20 722.00 L 327.30 720.60 L 322.50 720.30 L 318.50 719.40 L 315.20 718.00 L 312.50 716.20 L 310.30 713.90 L 308.60 711.20 L 307.30 707.90 L 306.40 703.90 L 306.20 697.20 L 306.50 692.40 L 307.40 688.40 L 308.80 685.10 L 310.60 682.40 L 312.90 680.20 L 315.60 678.50 L 318.90 677.20 L 322.90 676.30 L 327.80 676.10 Z" fill="#f1eff2" fill-rule="nonzero" group-id="9" node-id="87" stroke="none" target-height="46" target-width="178.59998" target-x="306.2" target-y="676"></path></g><g node-id="108"><path d="M 839.50 797.40 L 835.00 1125.70 L 361.60 1125.70 L 355.10 1125.40 L 349.50 1124.40 L 344.80 1122.90 L 340.70 1120.90 L 337.20 1118.50 L 334.30 1115.50 L 331.90 1112.10 L 329.90 1108.00 L 328.40 1103.20 L 327.50 1097.60 L 327.20 1091.10 L 327.40 829.60 L 327.70 825.60 L 328.50 821.80 L 329.80 818.10 L 331.60 814.70 L 333.80 811.60 L 336.40 808.80 L 339.30 806.30 L 342.50 804.10 L 346.00 802.40 L 349.80 801.10 L 353.70 800.30 L 357.90 800.00 Z" fill="#fce783" fill-rule="nonzero" group-id="10" node-id="92" stroke="none" target-height="328.29993" target-width="512.3" target-x="327.2" target-y="797.4"></path></g><path d="M 839.50 797.40 L 849.70 795.20 L 859.60 793.80 L 869.10 793.10 L 878.20 793.10 L 887.00 793.90 L 895.60 795.30 L 903.90 797.40 L 912.00 800.20 L 919.90 803.60 L 927.60 807.80 L 935.20 812.70 L 937.30 814.60 L 939.00 816.70 L 940.40 819.10 L 941.40 821.70 L 942.00 824.30 L 942.20 827.20 L 941.80 1107.20 L 941.50 1110.60 L 940.60 1113.70 L 939.30 1116.60 L 937.50 1119.30 L 935.30 1121.50 L 932.80 1123.30 L 930.00 1124.70 L 927.10 1125.60 L 923.80 1125.90 L 835.00 1125.70 Z" fill="#fddd44" fill-rule="nonzero" group-id="11" node-id="97" stroke="none" target-height="332.80005" target-width="107.20001" target-x="835" target-y="793.1"></path></svg>